<svg xmlns="http://www.w3.org/2000/svg" xmlns:xlink="http://www.w3.org/1999/xlink" viewBox="0 0 40 40"><defs><style>.cls-1{fill:none;}.cls-2{clip-path:url(#clip-path);}.cls-3{fill:#25477c;}.cls-4{fill:#c7483d;}.cls-5{fill:#fff;}</style><clipPath id="clip-path"><circle class="cls-1" cx="20" cy="20" r="20"/></clipPath></defs><g id="Capa_2" data-name="Capa 2"><g id="Capa_1-2" data-name="Capa 1"><g class="cls-2"><path class="cls-3" d="M20,27.14q19.8,0,39.58,0c.73,0,.91.19.9.9,0,3.31,0,6.61,0,9.92a3.31,3.31,0,0,1-3.28,3.45,5,5,0,0,1-.55,0h-73.3c-2,0-3.23-.85-3.71-2.46a3.38,3.38,0,0,1-.1-.94c0-3.36,0-6.72,0-10.08,0-.69.21-.79.84-.79Q.18,27.16,20,27.14Z"/><path class="cls-4" d="M20,12.72q-19.8,0-39.59,0c-.74,0-.9-.2-.9-.91,0-3.25,0-6.5,0-9.76A3.31,3.31,0,0,1-17.2-1.39a5,5,0,0,1,.55,0H56.66c2,0,3.25.85,3.69,2.47a3.25,3.25,0,0,1,.12.93c0,3.31,0,6.61,0,9.92,0,.66-.17.82-.83.82Q39.83,12.71,20,12.72Z"/><rect class="cls-5" x="-20.49" y="12.74" width="80.6" height="14.45"/></g></g></g></svg>